<?xml version="1.0" encoding="UTF-8" standalone="no"?>
<!DOCTYPE svg PUBLIC "-//W3C//DTD SVG 1.1//EN"
 "http://www.w3.org/Graphics/SVG/1.1/DTD/svg11.dtd">
<!-- Generated by graphviz version 2.40.1 (20161225.0304)
 -->
<!-- Title: PROV&#45;O render Pages: 1 -->
<svg width="243pt" height="129pt"
 viewBox="0.00 0.00 243.28 129.00" xmlns="http://www.w3.org/2000/svg" xmlns:xlink="http://www.w3.org/1999/xlink">
<g id="graph0" class="graph" transform="scale(1 1) rotate(0) translate(4 125)">
<title>PROV&#45;O render</title>
<polygon fill="#ffffff" stroke="transparent" points="-4,4 -4,-125 239.2791,-125 239.2791,4 -4,4"/>
<!-- _4ff8676506e04e724db6c9ed5b76dc39beeefd767b66036056fbce3593ded3dc -->
<g id="node1" class="node">
<title>_4ff8676506e04e724db6c9ed5b76dc39beeefd767b66036056fbce3593ded3dc</title>
<polygon fill="#cdc673" stroke="#808080" points="220.1396,-121 217.1396,-125 196.1396,-125 193.1396,-121 15.1396,-121 15.1396,-83 220.1396,-83 220.1396,-121"/>
<text text-anchor="middle" x="117.6396" y="-105.8" font-family="Times,serif" font-size="14.00" fill="#000000">ID &#45; urn:example:someCollection</text>
<text text-anchor="middle" x="117.6396" y="-90.8" font-family="Times,serif" font-size="14.00" fill="#000000">Exhibit &#45; 1234&#45;5</text>
</g>
<!-- _75447935a41fb2b4562606fec9bace2054521fecb4e82258780e1adacf20741f -->
<g id="node2" class="node">
<title>_75447935a41fb2b4562606fec9bace2054521fecb4e82258780e1adacf20741f</title>
<ellipse fill="#fff68f" stroke="#808080" cx="117.6396" cy="-18" rx="117.7793" ry="18"/>
<text text-anchor="middle" x="117.6396" y="-14.3" font-family="Times,serif" font-size="14.00" fill="#000000">ID &#45; urn:example:someEntity</text>
</g>
<!-- _4ff8676506e04e724db6c9ed5b76dc39beeefd767b66036056fbce3593ded3dc&#45;&gt;_75447935a41fb2b4562606fec9bace2054521fecb4e82258780e1adacf20741f -->
<g id="edge1" class="edge">
<title>_4ff8676506e04e724db6c9ed5b76dc39beeefd767b66036056fbce3593ded3dc&#45;&gt;_75447935a41fb2b4562606fec9bace2054521fecb4e82258780e1adacf20741f</title>
<path fill="none" stroke="#000000" d="M117.6396,-82.9391C117.6396,-72.0819 117.6396,-58.2747 117.6396,-46.1857"/>
<polygon fill="#000000" stroke="#000000" points="121.1397,-46.1217 117.6396,-36.1217 114.1397,-46.1218 121.1397,-46.1217"/>
<text text-anchor="middle" x="142.1396" y="-57" font-family="Times,serif" font-size="10.00" fill="#000000">hadMember</text>
</g>
</g>
</svg>
