<?xml version="1.0" encoding="UTF-8" standalone="no"?>
<!DOCTYPE svg PUBLIC "-//W3C//DTD SVG 1.1//EN"
 "http://www.w3.org/Graphics/SVG/1.1/DTD/svg11.dtd">
<!-- Generated by graphviz version 6.0.1 (20220911.1526)
 -->
<!-- Title: PROV&#45;O render Pages: 1 -->
<svg width="167pt" height="129pt"
 viewBox="0.00 0.00 166.59 129.00" xmlns="http://www.w3.org/2000/svg" xmlns:xlink="http://www.w3.org/1999/xlink">
<g id="graph0" class="graph" transform="scale(1 1) rotate(0) translate(4 125)">
<title>PROV&#45;O render</title>
<polygon fill="white" stroke="none" points="-4,4 -4,-125 162.59,-125 162.59,4 -4,4"/>
<!-- _4ff8676506e04e724db6c9ed5b76dc39beeefd767b66036056fbce3593ded3dc -->
<g id="node1" class="node">
<title>_4ff8676506e04e724db6c9ed5b76dc39beeefd767b66036056fbce3593ded3dc</title>
<polygon fill="#cdc673" stroke="#808080" points="152.29,-38 149.29,-42 128.29,-42 125.29,-38 6.29,-38 6.29,0 152.29,0 152.29,-38"/>
<text text-anchor="middle" x="79.29" y="-22.8" font-family="Times,serif" font-size="14.00">ID &#45; kb:someCollection</text>
<text text-anchor="middle" x="79.29" y="-7.8" font-family="Times,serif" font-size="14.00">Exhibit &#45; 1234&#45;5</text>
</g>
<!-- _75447935a41fb2b4562606fec9bace2054521fecb4e82258780e1adacf20741f -->
<g id="node2" class="node">
<title>_75447935a41fb2b4562606fec9bace2054521fecb4e82258780e1adacf20741f</title>
<ellipse fill="#fff68f" stroke="#808080" cx="79.29" cy="-103" rx="79.09" ry="18"/>
<text text-anchor="middle" x="79.29" y="-99.3" font-family="Times,serif" font-size="14.00">ID &#45; kb:someEntity</text>
</g>
<!-- _4ff8676506e04e724db6c9ed5b76dc39beeefd767b66036056fbce3593ded3dc&#45;&gt;_75447935a41fb2b4562606fec9bace2054521fecb4e82258780e1adacf20741f -->
<g id="edge1" class="edge">
<title>_4ff8676506e04e724db6c9ed5b76dc39beeefd767b66036056fbce3593ded3dc&#45;&gt;_75447935a41fb2b4562606fec9bace2054521fecb4e82258780e1adacf20741f</title>
<path fill="none" stroke="black" d="M79.29,-38.2C79.29,-49 79.29,-62.9 79.29,-74.96"/>
<polygon fill="black" stroke="black" points="75.79,-74.97 79.29,-84.97 82.79,-74.97 75.79,-74.97"/>
<text text-anchor="middle" x="103.79" y="-59" font-family="Times,serif" font-size="10.00">hadMember</text>
</g>
</g>
</svg>
