<?xml version="1.0" encoding="UTF-8" standalone="no"?>
<!DOCTYPE svg PUBLIC "-//W3C//DTD SVG 1.1//EN"
 "http://www.w3.org/Graphics/SVG/1.1/DTD/svg11.dtd">
<!-- Generated by graphviz version 2.50.0 (20211204.2007)
 -->
<!-- Title: PROV&#45;O render Pages: 1 -->
<svg width="238pt" height="129pt"
 viewBox="0.00 0.00 238.08 129.00" xmlns="http://www.w3.org/2000/svg" xmlns:xlink="http://www.w3.org/1999/xlink">
<g id="graph0" class="graph" transform="scale(1 1) rotate(0) translate(4 125)">
<title>PROV&#45;O render</title>
<polygon fill="white" stroke="transparent" points="-4,4 -4,-125 234.08,-125 234.08,4 -4,4"/>
<!-- _4ff8676506e04e724db6c9ed5b76dc39beeefd767b66036056fbce3593ded3dc -->
<g id="node1" class="node">
<title>_4ff8676506e04e724db6c9ed5b76dc39beeefd767b66036056fbce3593ded3dc</title>
<polygon fill="#cdc673" stroke="#808080" points="215.04,-121 212.04,-125 191.04,-125 188.04,-121 15.04,-121 15.04,-83 215.04,-83 215.04,-121"/>
<text text-anchor="middle" x="115.04" y="-105.8" font-family="Times,serif" font-size="14.00">ID &#45; urn:example:someCollection</text>
<text text-anchor="middle" x="115.04" y="-90.8" font-family="Times,serif" font-size="14.00">Exhibit &#45; 1234&#45;5</text>
</g>
<!-- _75447935a41fb2b4562606fec9bace2054521fecb4e82258780e1adacf20741f -->
<g id="node2" class="node">
<title>_75447935a41fb2b4562606fec9bace2054521fecb4e82258780e1adacf20741f</title>
<ellipse fill="#fff68f" stroke="#808080" cx="115.04" cy="-18" rx="115.08" ry="18"/>
<text text-anchor="middle" x="115.04" y="-14.3" font-family="Times,serif" font-size="14.00">ID &#45; urn:example:someEntity</text>
</g>
<!-- _4ff8676506e04e724db6c9ed5b76dc39beeefd767b66036056fbce3593ded3dc&#45;&gt;_75447935a41fb2b4562606fec9bace2054521fecb4e82258780e1adacf20741f -->
<g id="edge1" class="edge">
<title>_4ff8676506e04e724db6c9ed5b76dc39beeefd767b66036056fbce3593ded3dc&#45;&gt;_75447935a41fb2b4562606fec9bace2054521fecb4e82258780e1adacf20741f</title>
<path fill="none" stroke="black" d="M115.04,-82.8C115.04,-72 115.04,-58.1 115.04,-46.04"/>
<polygon fill="black" stroke="black" points="118.54,-46.03 115.04,-36.03 111.54,-46.03 118.54,-46.03"/>
<text text-anchor="middle" x="139.54" y="-57" font-family="Times,serif" font-size="10.00">hadMember</text>
</g>
</g>
</svg>
