<?xml version="1.0" encoding="UTF-8" standalone="no"?>
<!DOCTYPE svg PUBLIC "-//W3C//DTD SVG 1.1//EN"
 "http://www.w3.org/Graphics/SVG/1.1/DTD/svg11.dtd">
<!-- Generated by graphviz version 7.1.0 (20230121.1956)
 -->
<!-- Title: PROV&#45;O render Pages: 1 -->
<svg width="361pt" height="216pt"
 viewBox="0.00 0.00 361.00 216.00" xmlns="http://www.w3.org/2000/svg" xmlns:xlink="http://www.w3.org/1999/xlink">
<g id="graph0" class="graph" transform="scale(1 1) rotate(0) translate(4 212)">
<title>PROV&#45;O render</title>
<polygon fill="white" stroke="none" points="-4,4 -4,-212 357,-212 357,4 -4,4"/>
<!-- _dfa40afa8223607a4487772fe58783fb86ed8b6c03657ebaf7603a06c87ac4cd -->
<g id="node1" class="node">
<title>_dfa40afa8223607a4487772fe58783fb86ed8b6c03657ebaf7603a06c87ac4cd</title>
<polygon fill="#9fb1fc" stroke="#0000ff" points="279.5,-208 73.5,-208 73.5,-170 279.5,-170 279.5,-208"/>
<text text-anchor="middle" x="176.5" y="-192.8" font-family="Times,serif" font-size="14.00">ID &#45; kb:activity1</text>
<text text-anchor="middle" x="176.5" y="-177.8" font-family="Times,serif" font-size="14.00"> [2020&#45;01&#45;02T03:04:05+00:00, ...)</text>
</g>
<!-- _1dc69e0ebb51673345ae966d7c1ed38f939e9f2a3eb4c3753722e4a4aab66fb1 -->
<g id="node2" class="node">
<title>_1dc69e0ebb51673345ae966d7c1ed38f939e9f2a3eb4c3753722e4a4aab66fb1</title>
<polygon fill="#9fb1fc" stroke="#0000ff" points="353,-123 0,-123 0,-85 353,-85 353,-123"/>
<text text-anchor="middle" x="176.5" y="-107.8" font-family="Times,serif" font-size="14.00">ID &#45; kb:activity2</text>
<text text-anchor="middle" x="176.5" y="-92.8" font-family="Times,serif" font-size="14.00"> [2020&#45;01&#45;02T06:07:08+00:00, 2020&#45;01&#45;02T12:00:01+00:00]</text>
</g>
<!-- _1dc69e0ebb51673345ae966d7c1ed38f939e9f2a3eb4c3753722e4a4aab66fb1&#45;&gt;_dfa40afa8223607a4487772fe58783fb86ed8b6c03657ebaf7603a06c87ac4cd -->
<g id="edge1" class="edge">
<title>_1dc69e0ebb51673345ae966d7c1ed38f939e9f2a3eb4c3753722e4a4aab66fb1&#45;&gt;_dfa40afa8223607a4487772fe58783fb86ed8b6c03657ebaf7603a06c87ac4cd</title>
<path fill="none" stroke="#0000cd" d="M176.5,-123.42C176.5,-133.63 176.5,-146.57 176.5,-158.18"/>
<polygon fill="#0000cd" stroke="#0000cd" points="173,-158.12 176.5,-168.12 180,-158.12 173,-158.12"/>
<text text-anchor="middle" x="209" y="-144" font-family="Times,serif" font-size="10.00">wasInformedBy</text>
</g>
<!-- _526944cfe3743b492c3f7751131a98aa3eb5bc97b4085097a36a0eda13b85b9d -->
<g id="node3" class="node">
<title>_526944cfe3743b492c3f7751131a98aa3eb5bc97b4085097a36a0eda13b85b9d</title>
<polygon fill="#9fb1fc" stroke="#0000ff" points="279.5,-38 73.5,-38 73.5,0 279.5,0 279.5,-38"/>
<text text-anchor="middle" x="176.5" y="-22.8" font-family="Times,serif" font-size="14.00">ID &#45; kb:activity3</text>
<text text-anchor="middle" x="176.5" y="-7.8" font-family="Times,serif" font-size="14.00"> (..., 2020&#45;01&#45;02T21:00:02+00:00]</text>
</g>
<!-- _526944cfe3743b492c3f7751131a98aa3eb5bc97b4085097a36a0eda13b85b9d&#45;&gt;_1dc69e0ebb51673345ae966d7c1ed38f939e9f2a3eb4c3753722e4a4aab66fb1 -->
<g id="edge2" class="edge">
<title>_526944cfe3743b492c3f7751131a98aa3eb5bc97b4085097a36a0eda13b85b9d&#45;&gt;_1dc69e0ebb51673345ae966d7c1ed38f939e9f2a3eb4c3753722e4a4aab66fb1</title>
<path fill="none" stroke="#0000cd" d="M176.5,-38.42C176.5,-48.63 176.5,-61.57 176.5,-73.18"/>
<polygon fill="#0000cd" stroke="#0000cd" points="173,-73.12 176.5,-83.12 180,-73.12 173,-73.12"/>
<text text-anchor="middle" x="209" y="-59" font-family="Times,serif" font-size="10.00">wasInformedBy</text>
</g>
</g>
</svg>
