<?xml version="1.0" encoding="UTF-8" standalone="no"?>
<!DOCTYPE svg PUBLIC "-//W3C//DTD SVG 1.1//EN"
 "http://www.w3.org/Graphics/SVG/1.1/DTD/svg11.dtd">
<!-- Generated by graphviz version 2.40.1 (20161225.0304)
 -->
<!-- Title: PROV&#45;O render Pages: 1 -->
<svg width="371pt" height="216pt"
 viewBox="0.00 0.00 371.00 216.00" xmlns="http://www.w3.org/2000/svg" xmlns:xlink="http://www.w3.org/1999/xlink">
<g id="graph0" class="graph" transform="scale(1 1) rotate(0) translate(4 212)">
<title>PROV&#45;O render</title>
<polygon fill="#ffffff" stroke="transparent" points="-4,4 -4,-212 367,-212 367,4 -4,4"/>
<!-- _dfa40afa8223607a4487772fe58783fb86ed8b6c03657ebaf7603a06c87ac4cd -->
<g id="node1" class="node">
<title>_dfa40afa8223607a4487772fe58783fb86ed8b6c03657ebaf7603a06c87ac4cd</title>
<polygon fill="#9fb1fc" stroke="#0000ff" points="286.5,-38 76.5,-38 76.5,0 286.5,0 286.5,-38"/>
<text text-anchor="middle" x="181.5" y="-22.8" font-family="Times,serif" font-size="14.00" fill="#000000">ID &#45; urn:example:activity1</text>
<text text-anchor="middle" x="181.5" y="-7.8" font-family="Times,serif" font-size="14.00" fill="#000000"> [2020&#45;01&#45;02T03:04:05+00:00, ...)</text>
</g>
<!-- _1dc69e0ebb51673345ae966d7c1ed38f939e9f2a3eb4c3753722e4a4aab66fb1 -->
<g id="node2" class="node">
<title>_1dc69e0ebb51673345ae966d7c1ed38f939e9f2a3eb4c3753722e4a4aab66fb1</title>
<polygon fill="#9fb1fc" stroke="#0000ff" points="363,-123 0,-123 0,-85 363,-85 363,-123"/>
<text text-anchor="middle" x="181.5" y="-107.8" font-family="Times,serif" font-size="14.00" fill="#000000">ID &#45; urn:example:activity2</text>
<text text-anchor="middle" x="181.5" y="-92.8" font-family="Times,serif" font-size="14.00" fill="#000000"> [2020&#45;01&#45;02T06:07:08+00:00, 2020&#45;01&#45;02T12:00:01+00:00]</text>
</g>
<!-- _1dc69e0ebb51673345ae966d7c1ed38f939e9f2a3eb4c3753722e4a4aab66fb1&#45;&gt;_dfa40afa8223607a4487772fe58783fb86ed8b6c03657ebaf7603a06c87ac4cd -->
<g id="edge1" class="edge">
<title>_1dc69e0ebb51673345ae966d7c1ed38f939e9f2a3eb4c3753722e4a4aab66fb1&#45;&gt;_dfa40afa8223607a4487772fe58783fb86ed8b6c03657ebaf7603a06c87ac4cd</title>
<path fill="none" stroke="#0000cd" d="M181.5,-84.7122C181.5,-73.9531 181.5,-60.331 181.5,-48.2827"/>
<polygon fill="#0000cd" stroke="#0000cd" points="185.0001,-48.2115 181.5,-38.2115 178.0001,-48.2115 185.0001,-48.2115"/>
<text text-anchor="middle" x="214" y="-59" font-family="Times,serif" font-size="10.00" fill="#000000">wasInformedBy</text>
</g>
<!-- _526944cfe3743b492c3f7751131a98aa3eb5bc97b4085097a36a0eda13b85b9d -->
<g id="node3" class="node">
<title>_526944cfe3743b492c3f7751131a98aa3eb5bc97b4085097a36a0eda13b85b9d</title>
<polygon fill="#9fb1fc" stroke="#0000ff" points="286.5,-208 76.5,-208 76.5,-170 286.5,-170 286.5,-208"/>
<text text-anchor="middle" x="181.5" y="-192.8" font-family="Times,serif" font-size="14.00" fill="#000000">ID &#45; urn:example:activity3</text>
<text text-anchor="middle" x="181.5" y="-177.8" font-family="Times,serif" font-size="14.00" fill="#000000"> (..., 2020&#45;01&#45;02T21:00:02+00:00]</text>
</g>
<!-- _526944cfe3743b492c3f7751131a98aa3eb5bc97b4085097a36a0eda13b85b9d&#45;&gt;_1dc69e0ebb51673345ae966d7c1ed38f939e9f2a3eb4c3753722e4a4aab66fb1 -->
<g id="edge2" class="edge">
<title>_526944cfe3743b492c3f7751131a98aa3eb5bc97b4085097a36a0eda13b85b9d&#45;&gt;_1dc69e0ebb51673345ae966d7c1ed38f939e9f2a3eb4c3753722e4a4aab66fb1</title>
<path fill="none" stroke="#0000cd" d="M181.5,-169.7122C181.5,-158.9531 181.5,-145.331 181.5,-133.2827"/>
<polygon fill="#0000cd" stroke="#0000cd" points="185.0001,-133.2115 181.5,-123.2115 178.0001,-133.2115 185.0001,-133.2115"/>
<text text-anchor="middle" x="214" y="-144" font-family="Times,serif" font-size="10.00" fill="#000000">wasInformedBy</text>
</g>
</g>
</svg>
